<svg width="168" height="158" viewBox="0 0 168 158" xmlns="http://www.w3.org/2000/svg" xmlns:xlink="http://www.w3.org/1999/xlink"><title>Page 1</title><defs><path id="a" d="M0 157h168.39V.501H0z"/></defs><g fill="none" fill-rule="evenodd"><path fill="#00526B" d="M78 67v91h13.52v-13.256h63.769V158H168V67z"/><path d="M156.397 104.465c0 9.654-7.843 17.48-17.52 17.48-9.676 0-17.52-7.826-17.52-17.48 0-9.653 7.844-17.479 17.52-17.479 9.677 0 17.52 7.826 17.52 17.48z" fill="#FFF"/><path d="M148.008 104.465c0 5.031-4.088 9.11-9.13 9.11-5.043 0-9.131-4.079-9.131-9.11 0-5.03 4.088-9.109 9.13-9.109 5.043 0 9.131 4.078 9.131 9.11" fill="#00526B"/><mask id="b" fill="#fff"><use xlink:href="#a"/></mask><path fill="#FFF" mask="url(#b)" d="M91.703 122.403h9.43V87.76h-9.43z"/><path fill="#49B8D5" mask="url(#b)" d="M81.867 120.057L0 82.175 37.97.501l81.867 37.881z"/><path d="M98.303 52.235c-2.367 5.092-8.423 7.304-13.527 4.943-5.104-2.362-7.322-8.404-4.955-13.496 2.367-5.092 8.424-7.304 13.527-4.943 5.104 2.362 7.323 8.403 4.955 13.496" fill="#FFF" mask="url(#b)"/><path fill="#00526B" mask="url(#b)" d="M32.525 57.566l25.178-14.443 5.211 28.504"/><path fill="#FFF" mask="url(#b)" d="M78.455 105.69L13.197 75.494l4.946-10.639 65.258 30.197z"/></g></svg>