<svg width="152" height="133" viewBox="0 0 152 133" xmlns="http://www.w3.org/2000/svg"><title>Page 1</title><g fill="none" fill-rule="evenodd"><path fill="#7AD393" d="M58 94h94V0H58z"/><path d="M137.467 21.942c0 5.858-4.731 10.607-10.567 10.607-5.837 0-10.569-4.75-10.569-10.607 0-5.858 4.732-10.607 10.569-10.607 5.836 0 10.567 4.749 10.567 10.607z" fill="#FFF"/><path fill="#00526B" d="M77.895 55.809l17.377-24.706 17.375 24.706M67.55 81.252h74.626v-12.24H67.55z"/><path d="M92.64 86.508C92.64 112.185 71.902 133 46.32 133S0 112.185 0 86.508C0 60.83 20.738 40.015 46.32 40.015s46.32 20.816 46.32 46.493" fill="#FFB1D3"/><path stroke="#FFF" stroke-width="11.714" d="M29.528 84.686l12.13 12.175L63.11 75.327"/></g></svg>