<svg width="192" height="139" viewBox="0 0 192 139" xmlns="http://www.w3.org/2000/svg"><title>Page 1</title><g fill="none" fill-rule="evenodd"><path fill="#00526B" d="M88.917 0L0 22.083 22.083 111 111 88.917z"/><path d="M80.328 25.128c1.371 5.544-1.993 11.154-7.516 12.53-5.522 1.378-11.11-2-12.482-7.544-1.371-5.544 1.993-11.154 7.516-12.531 5.522-1.377 11.11 2.002 12.482 7.545" fill="#FFF"/><path fill="#49B8D5" d="M31.893 71.23L42.55 43.752l22.224 19.28"/><path fill="#7AD393" d="M98.67 80.143L28.06 97.748l-2.866-11.583L95.803 68.56z"/><path fill="#C2E6F0" d="M191.295 139H66.24V47.087h125.055z"/><path d="M179.446 98.798c0 5.757-4.649 10.423-10.384 10.423s-10.383-4.666-10.383-10.423 4.648-10.424 10.383-10.424c5.735 0 10.384 4.667 10.384 10.424" fill="#004863"/><path fill="#004863" d="M174.437 124.718l-5.374-3.597-5.376 3.597v-17.347h10.75z"/><path d="M167.805 68.484c-12.162-4.515-25.312-6.985-39.037-6.985-13.725 0-26.875 2.47-39.037 6.985m28.452 9.987h21.17M78.515 116.65h53.773m-53.773-14.81h53.773" stroke="#49B8D5" stroke-width="6"/></g></svg>